<svg width="802" height="696" viewBox="0 0 802 696" fill="none" xmlns="http://www.w3.org/2000/svg">
<g clip-path="url(#clip0_9_7)">
<g filter="url(#filter0_d_9_7)">
<path fill-rule="evenodd" clip-rule="evenodd" d="M98.2069 243.399C61.9673 243.399 43.8192 287.215 69.4455 312.839L203.729 447.113C222.483 465.865 247.917 476.399 274.437 476.399H345.13C371.65 476.399 397.084 486.934 415.838 505.686L576.877 666.713C595.631 685.465 621.065 696 647.585 696H1036.44C1108.97 696 1145.3 608.302 1094 557.015L1007.61 470.63C988.202 451.22 1001.95 418.03 1029.4 418.03V418.03C1056.85 418.03 1070.6 384.841 1051.19 365.431L855.851 170.111C837.097 151.359 811.663 140.824 785.143 140.824H550.701C524.18 140.824 498.746 130.289 479.993 111.537L444.74 76.2866C425.986 57.5346 400.552 47 374.032 47H138.88C87.6319 47 61.9673 108.963 98.2069 145.199L126.968 173.959C152.595 199.583 134.447 243.399 98.2069 243.399V243.399Z" fill="#2D314D"/>
</g>
<path fill-rule="evenodd" clip-rule="evenodd" d="M236.207 -63.601C199.967 -63.601 181.819 -19.7852 207.445 5.83914L341.729 140.113C360.483 158.865 385.917 169.399 412.437 169.399H483.13C509.65 169.399 535.084 179.934 553.838 198.686L714.877 359.713C733.631 378.465 759.065 389 785.585 389H1174.44C1246.97 389 1283.3 301.302 1232 250.015L1145.61 163.63C1126.2 144.22 1139.95 111.03 1167.4 111.03V111.03C1194.85 111.03 1208.6 77.8407 1189.19 58.4307L993.851 -136.889C975.097 -155.641 949.663 -166.176 923.143 -166.176H688.701C662.18 -166.176 636.746 -176.711 617.993 -195.463L582.74 -230.713C563.986 -249.465 538.552 -260 512.032 -260H276.88C225.632 -260 199.967 -198.037 236.207 -161.801L264.968 -133.041C290.595 -107.417 272.447 -63.601 236.207 -63.601V-63.601Z" fill="url(#paint0_linear_9_7)"/>
</g>
<defs>
<filter id="filter0_d_9_7" x="-19.551" y="-28" width="1214.57" height="803" filterUnits="userSpaceOnUse" color-interpolation-filters="sRGB">
<feFlood flood-opacity="0" result="BackgroundImageFix"/>
<feColorMatrix in="SourceAlpha" type="matrix" values="0 0 0 0 0 0 0 0 0 0 0 0 0 0 0 0 0 0 127 0" result="hardAlpha"/>
<feOffset dy="2"/>
<feGaussianBlur stdDeviation="38.5"/>
<feColorMatrix type="matrix" values="0 0 0 0 0 0 0 0 0 0 0 0 0 0 0 0 0 0 0.0240111 0"/>
<feBlend mode="normal" in2="BackgroundImageFix" result="effect1_dropShadow_9_7"/>
<feBlend mode="normal" in="SourceGraphic" in2="effect1_dropShadow_9_7" result="shape"/>
</filter>
<linearGradient id="paint0_linear_9_7" x1="-475.913" y1="63.1382" x2="56.8341" y2="1075.28" gradientUnits="userSpaceOnUse">
<stop stop-color="#33D35E"/>
<stop offset="1" stop-color="#2AB6D9"/>
</linearGradient>
<clipPath id="clip0_9_7">
<rect width="802" height="696" fill="white"/>
</clipPath>
</defs>
</svg>
