<?xml version="1.0" encoding="UTF-8" standalone="no"?>
<svg
   xmlns:dc="http://purl.org/dc/elements/1.1/"
   xmlns:cc="http://creativecommons.org/ns#"
   xmlns:rdf="http://www.w3.org/1999/02/22-rdf-syntax-ns#"
   xmlns:svg="http://www.w3.org/2000/svg"
   xmlns="http://www.w3.org/2000/svg"
   xmlns:xlink="http://www.w3.org/1999/xlink"
   xmlns:sodipodi="http://sodipodi.sourceforge.net/DTD/sodipodi-0.dtd"
   xmlns:inkscape="http://www.inkscape.org/namespaces/inkscape"
   width="375"
   height="343"
   version="1.1"
   id="svg143"
   sodipodi:docname="bg-intro-mobile.svg"
   inkscape:version="0.92.5 (2060ec1f9f, 2020-04-08)">
  <metadata
     id="metadata147">
    <rdf:RDF>
      <cc:Work
         rdf:about="">
        <dc:format>image/svg+xml</dc:format>
        <dc:type
           rdf:resource="http://purl.org/dc/dcmitype/StillImage" />
        <dc:title></dc:title>
      </cc:Work>
    </rdf:RDF>
  </metadata>
  <sodipodi:namedview
     pagecolor="#ffffff"
     bordercolor="#666666"
     borderopacity="1"
     objecttolerance="10"
     gridtolerance="10"
     guidetolerance="10"
     inkscape:pageopacity="0"
     inkscape:pageshadow="2"
     inkscape:window-width="1600"
     inkscape:window-height="821"
     id="namedview145"
     showgrid="false"
     inkscape:zoom="0.52322559"
     inkscape:cx="-28.482476"
     inkscape:cy="380.35073"
     inkscape:window-x="0"
     inkscape:window-y="0"
     inkscape:window-maximized="1"
     inkscape:current-layer="svg143" />
  <defs
     id="defs133">
    <linearGradient
       id="c"
       x1="194.97318"
       x2="700.20679"
       y1="184.63446"
       y2="324.69751"
       gradientTransform="scale(1.2779963,0.78247487)"
       gradientUnits="userSpaceOnUse">
      <stop
         offset="0%"
         stop-color="#33D35E"
         id="stop120" />
      <stop
         offset="100%"
         stop-color="#2AB6D9"
         id="stop122" />
    </linearGradient>
    <filter
       id="a"
       width="1.169"
       height="1.587"
       x="-0.108"
       y="-0.28799999"
       filterUnits="objectBoundingBox">
      <feOffset
         dy="2"
         in="SourceAlpha"
         result="shadowOffsetOuter1"
         id="feOffset125" />
      <feGaussianBlur
         in="shadowOffsetOuter1"
         result="shadowBlurOuter1"
         stdDeviation="38.5"
         id="feGaussianBlur127" />
      <feColorMatrix
         in="shadowBlurOuter1"
         values="0 0 0 0 0 0 0 0 0 0 0 0 0 0 0 0 0 0 0.0240111451 0"
         id="feColorMatrix129" />
    </filter>
    <path
       id="b"
       d="m 42.46,162.61 70.744,70.76 a 100,100 0 0 0 70.719,29.298 h 11.03 a 100,100 0 0 1 70.719,29.298 l 75.718,75.736 A 100,100 0 0 0 412.109,397 H 633.78 c 27.507,0 49.805,-22.299 49.805,-49.805 a 49.805,49.805 0 0 0 -14.583,-35.213 l -52.835,-52.848 c -7.359,-7.36 -7.357,-19.294 0.003,-26.653 a 18.846,18.846 0 0 1 13.325,-5.518 c 10.408,0 18.846,-8.438 18.846,-18.846 0,-4.997 -1.985,-9.79 -5.518,-13.325 L 534.747,86.691 A 100,100 0 0 0 464.027,57.393 H 352.013 A 97.948,97.948 0 0 1 282.746,28.697 97.948,97.948 0 0 0 213.477,0 H 84.94 C 65.505,0 49.75,15.755 49.75,35.19 A 35.19,35.19 0 0 0 60.054,60.07 L 77.65,77.669 c 9.715,9.717 9.713,25.47 -0.004,35.185 a 24.88,24.88 0 0 1 -17.59,7.285 c -13.742,0 -24.88,11.14 -24.88,24.88 a 24.88,24.88 0 0 0 7.284,17.59 z"
       inkscape:connector-curvature="0" />
  </defs>
  <g
     transform="translate(-94,-52)"
     id="g141"
     style="fill:none;fill-rule:evenodd">
    <use
       xlink:href="#b"
       id="use135"
       style="fill:#000000;filter:url(#a)"
       x="0"
       y="0"
       width="100%"
       height="100%" />
    <use
       xlink:href="#b"
       id="use137"
       style="fill:#2d314d"
       x="0"
       y="0"
       width="100%"
       height="100%" />
    <path
       d="m 256.46,163.61 70.744,70.76 a 100,100 0 0 0 70.719,29.298 h 11.03 a 100,100 0 0 1 70.719,29.298 l 75.718,75.736 A 100,100 0 0 0 626.109,398 H 847.78 c 27.507,0 49.805,-22.299 49.805,-49.805 a 49.805,49.805 0 0 0 -14.583,-35.213 l -52.835,-52.848 c -7.359,-7.36 -7.357,-19.294 0.003,-26.653 a 18.846,18.846 0 0 1 13.325,-5.518 c 10.408,0 18.846,-8.438 18.846,-18.846 0,-4.997 -1.985,-9.79 -5.518,-13.325 L 748.747,87.691 A 100,100 0 0 0 678.027,58.393 H 566.013 A 97.948,97.948 0 0 1 496.746,29.697 97.948,97.948 0 0 0 427.477,1 H 298.94 c -19.435,0 -35.19,15.755 -35.19,35.19 a 35.19,35.19 0 0 0 10.304,24.88 l 17.595,17.599 c 9.715,9.717 9.713,25.47 -0.004,35.185 a 24.88,24.88 0 0 1 -17.59,7.285 c -13.742,0 -24.88,11.14 -24.88,24.88 a 24.88,24.88 0 0 0 7.284,17.59 z"
       id="path139"
       inkscape:connector-curvature="0"
       style="fill:url(#c)" />
  </g>
</svg>
